<?xml version="1.0" standalone="no"?>
<!DOCTYPE svg PUBLIC "-//W3C//DTD SVG 20010904//EN"
 "http://www.w3.org/TR/2001/REC-SVG-20010904/DTD/svg10.dtd">
<svg version="1.0" xmlns="http://www.w3.org/2000/svg"
 width="238.000000pt" height="238.000000pt" viewBox="0 0 238.000000 238.000000"
 preserveAspectRatio="xMidYMid meet">
<metadata>
Created by potrace 1.14, written by Peter Selinger 2001-2017
</metadata>
<g transform="translate(0.000000,238.000000) scale(0.100000,-0.100000)"
fill="#000000" stroke="none">
<path d="M979 2360 c-157 -32 -283 -80 -416 -158 -158 -93 -324 -272 -423
-454 -40 -74 -105 -238 -95 -238 3 0 1 -8 -4 -17 -9 -18 -14 -40 -29 -133 -8
-53 -8 -288 0 -345 26 -167 95 -343 195 -494 56 -84 194 -232 248 -267 17 -10
34 -24 38 -31 4 -7 13 -13 18 -13 6 0 25 -11 42 -24 75 -56 215 -115 361 -153
85 -22 124 -26 251 -27 243 -1 356 23 560 124 295 146 527 428 610 741 36 140
37 143 40 289 7 262 -57 481 -202 698 -52 77 -178 214 -244 266 -118 91 -285
175 -422 211 -137 36 -141 37 -297 40 -109 2 -166 -2 -231 -15z"/>
</g>
</svg>
