<svg id="visual" viewBox="0 0 960 200" width="960" height="200" xmlns="http://www.w3.org/2000/svg" xmlns:xlink="http://www.w3.org/1999/xlink" version="1.1"><rect x="0" y="0" width="960" height="200" fill="#F3F4F6"></rect><path d="M0 54L22.8 58.5C45.7 63 91.3 72 137 71.8C182.7 71.7 228.3 62.3 274 57C319.7 51.7 365.3 50.3 411.2 48.5C457 46.7 503 44.3 548.8 43.2C594.7 42 640.3 42 686 42.3C731.7 42.7 777.3 43.3 823 49.3C868.7 55.3 914.3 66.7 937.2 72.3L960 78L960 201L937.2 201C914.3 201 868.7 201 823 201C777.3 201 731.7 201 686 201C640.3 201 594.7 201 548.8 201C503 201 457 201 411.2 201C365.3 201 319.7 201 274 201C228.3 201 182.7 201 137 201C91.3 201 45.7 201 22.8 201L0 201Z" fill="#68d391"></path><path d="M0 85L22.8 86.5C45.7 88 91.3 91 137 97.2C182.7 103.3 228.3 112.7 274 112.8C319.7 113 365.3 104 411.2 97.3C457 90.7 503 86.3 548.8 88.8C594.7 91.3 640.3 100.7 686 106.3C731.7 112 777.3 114 823 111C868.7 108 914.3 100 937.2 96L960 92L960 201L937.2 201C914.3 201 868.7 201 823 201C777.3 201 731.7 201 686 201C640.3 201 594.7 201 548.8 201C503 201 457 201 411.2 201C365.3 201 319.7 201 274 201C228.3 201 182.7 201 137 201C91.3 201 45.7 201 22.8 201L0 201Z" fill="#66c172"></path><path d="M0 139L22.8 137.5C45.7 136 91.3 133 137 132.7C182.7 132.3 228.3 134.7 274 137C319.7 139.3 365.3 141.7 411.2 146.7C457 151.7 503 159.3 548.8 162.2C594.7 165 640.3 163 686 158.3C731.7 153.7 777.3 146.3 823 146.2C868.7 146 914.3 153 937.2 156.5L960 160L960 201L937.2 201C914.3 201 868.7 201 823 201C777.3 201 731.7 201 686 201C640.3 201 594.7 201 548.8 201C503 201 457 201 411.2 201C365.3 201 319.7 201 274 201C228.3 201 182.7 201 137 201C91.3 201 45.7 201 22.8 201L0 201Z" fill="#65af53"></path></svg>