<svg id="visual" viewBox="0 0 960 540" width="960" height="540" xmlns="http://www.w3.org/2000/svg" xmlns:xlink="http://www.w3.org/1999/xlink" version="1.1"><rect x="0" y="0" width="960" height="540" fill="#F3F4F6"></rect><path d="M0 239L22.8 234.7C45.7 230.3 91.3 221.7 137 208.2C182.7 194.7 228.3 176.3 274 179.5C319.7 182.7 365.3 207.3 411.2 225.3C457 243.3 503 254.7 548.8 260.5C594.7 266.3 640.3 266.7 686 249.5C731.7 232.3 777.3 197.7 823 193C868.7 188.3 914.3 213.7 937.2 226.3L960 239L960 0L937.2 0C914.3 0 868.7 0 823 0C777.3 0 731.7 0 686 0C640.3 0 594.7 0 548.8 0C503 0 457 0 411.2 0C365.3 0 319.7 0 274 0C228.3 0 182.7 0 137 0C91.3 0 45.7 0 22.8 0L0 0Z" fill="#65AF53" stroke-linecap="round" stroke-linejoin="miter"></path></svg>
