<svg id="visual" viewBox="0 0 960 540" width="960" height="540" xmlns="http://www.w3.org/2000/svg" xmlns:xlink="http://www.w3.org/1999/xlink" version="1.1"><rect x="0" y="0" width="960" height="540" fill="#F3F4F6"></rect><path d="M0 146L22.8 154.5C45.7 163 91.3 180 137 176.8C182.7 173.7 228.3 150.3 274 145.7C319.7 141 365.3 155 411.2 166.5C457 178 503 187 548.8 191.8C594.7 196.7 640.3 197.3 686 188C731.7 178.7 777.3 159.3 823 153.3C868.7 147.3 914.3 154.7 937.2 158.3L960 162L960 0L937.2 0C914.3 0 868.7 0 823 0C777.3 0 731.7 0 686 0C640.3 0 594.7 0 548.8 0C503 0 457 0 411.2 0C365.3 0 319.7 0 274 0C228.3 0 182.7 0 137 0C91.3 0 45.7 0 22.8 0L0 0Z" fill="#65AF53" stroke-linecap="round" stroke-linejoin="miter"></path></svg>