<svg id="visual" viewBox="0 0 960 540" width="960" height="540" xmlns="http://www.w3.org/2000/svg" xmlns:xlink="http://www.w3.org/1999/xlink" version="1.1"><rect x="0" y="0" width="960" height="540" fill="#F3F4F6"></rect><path d="M0 164L22.8 159.8C45.7 155.7 91.3 147.3 137 145.8C182.7 144.3 228.3 149.7 274 156.3C319.7 163 365.3 171 411.2 177C457 183 503 187 548.8 181C594.7 175 640.3 159 686 150C731.7 141 777.3 139 823 147C868.7 155 914.3 173 937.2 182L960 191L960 0L937.2 0C914.3 0 868.7 0 823 0C777.3 0 731.7 0 686 0C640.3 0 594.7 0 548.8 0C503 0 457 0 411.2 0C365.3 0 319.7 0 274 0C228.3 0 182.7 0 137 0C91.3 0 45.7 0 22.8 0L0 0Z" fill="#65AF53" stroke-linecap="round" stroke-linejoin="miter"></path></svg>